<?xml version="1.0" encoding="UTF-8" standalone="no"?>
<svg
   xmlns:dc="http://purl.org/dc/elements/1.1/"
   xmlns:cc="http://creativecommons.org/ns#"
   xmlns:rdf="http://www.w3.org/1999/02/22-rdf-syntax-ns#"
   xmlns:svg="http://www.w3.org/2000/svg"
   xmlns="http://www.w3.org/2000/svg"
   xmlns:sodipodi="http://sodipodi.sourceforge.net/DTD/sodipodi-0.dtd"
   xmlns:inkscape="http://www.inkscape.org/namespaces/inkscape"
   version="1.1"
   viewBox="0 0 248.36599 248.37199"
   xml:space="preserve"
   id="svg17"
   sodipodi:docname="Generic-component.svg"
   width="248.366"
   height="248.37199"
   inkscape:version="0.92.4 (unknown)"><metadata
     id="metadata23"><rdf:RDF><cc:Work
         rdf:about=""><dc:format>image/svg+xml</dc:format><dc:type
           rdf:resource="http://purl.org/dc/dcmitype/StillImage" /><dc:title></dc:title></cc:Work></rdf:RDF></metadata><defs
     id="defs21" /><sodipodi:namedview
     pagecolor="#ffffff"
     bordercolor="#666666"
     borderopacity="1"
     objecttolerance="10"
     gridtolerance="10"
     guidetolerance="10"
     inkscape:pageopacity="0"
     inkscape:pageshadow="2"
     inkscape:window-width="1853"
     inkscape:window-height="1025"
     id="namedview19"
     showgrid="false"
     fit-margin-top="0"
     fit-margin-left="0"
     fit-margin-right="0"
     fit-margin-bottom="0"
     inkscape:zoom="0.9440151"
     inkscape:cx="213.63263"
     inkscape:cy="122.28667"
     inkscape:window-x="67"
     inkscape:window-y="1051"
     inkscape:window-maximized="1"
     inkscape:current-layer="svg17" /><path
     inkscape:connector-curvature="0"
     id="path4"
     style="fill:#808080"
     d="M 197.344,27.835 H 51.468 c -13.563,0 -24.604,11.036 -24.604,24.609 v 145.871 c 0,13.553 11.041,24.584 24.604,24.584 h 145.876 c 13.553,0 24.589,-11.031 24.589,-24.584 V 52.444 c 0,-13.573 -11.035,-24.609 -24.589,-24.609 z m 9.464,170.146 c 0,5.414 -4.385,9.813 -9.794,9.813 H 51.778 c -5.404,0 -9.784,-4.4 -9.784,-9.813 V 52.745 c 0,-5.39 4.38,-9.789 9.784,-9.789 h 145.236 c 5.409,0 9.794,4.4 9.794,9.789 z" /><path
     inkscape:connector-curvature="0"
     id="path6"
     style="fill:#848a93"
     d="M 72.07,20.093 H 53.69 V 3.944 C 53.69,1.761 55.456,0 57.629,0 h 10.492 c 2.183,0 3.949,1.761 3.949,3.944 z M 113.084,3.944 C 113.084,1.761 111.309,0 109.14,0 H 98.648 c -2.183,0 -3.939,1.761 -3.939,3.944 v 16.149 h 18.375 z m 41.015,0 C 154.099,1.761 152.333,0 150.155,0 h -10.497 c -2.183,0 -3.939,1.761 -3.939,3.944 v 16.149 h 18.38 z m 37.075,-3.943 h -10.502 c -2.178,0 -3.944,1.761 -3.944,3.944 v 16.148 h 18.375 V 3.944 c 0,-2.182 -1.76,-3.943 -3.929,-3.943 z M 0,180.246 v 10.488 c 0,2.173 1.766,3.949 3.939,3.949 H 20.097 V 176.298 H 3.939 C 1.766,176.297 0,178.068 0,180.246 Z m 0,-41.024 v 10.497 c 0,2.178 1.766,3.949 3.939,3.949 H 20.097 V 135.283 H 3.939 c -2.173,0 -3.939,1.77 -3.939,3.939 z m 0,-41.01 v 10.507 c 0,2.178 1.766,3.929 3.939,3.929 H 20.097 V 94.283 H 3.939 C 1.766,94.283 0,96.034 0,98.212 Z M 0,57.193 v 10.512 c 0,2.173 1.766,3.929 3.939,3.929 H 20.097 V 53.259 H 3.939 C 1.766,53.259 0,55.02 0,57.193 Z m 176.296,187.235 c 0,2.183 1.766,3.944 3.939,3.944 h 10.502 c 2.173,0 3.939,-1.761 3.939,-3.944 v -16.153 h -18.38 z m -41.014,0 c 0,2.183 1.761,3.944 3.934,3.944 h 10.502 c 2.183,0 3.939,-1.761 3.939,-3.944 v -16.153 h -18.375 z m -41.015,0 c 0,2.183 1.766,3.944 3.944,3.944 h 10.497 c 2.183,0 3.934,-1.761 3.934,-3.944 V 228.275 H 94.266 v 16.153 z m -41.004,0 c 0,2.183 1.761,3.944 3.929,3.944 h 10.502 c 2.178,0 3.939,-1.761 3.939,-3.944 V 228.275 H 53.263 Z M 244.427,53.691 h -16.158 v 18.39 h 16.158 c 2.173,0 3.939,-1.775 3.939,-3.953 V 57.64 c 0,-2.174 -1.766,-3.949 -3.939,-3.949 z m 0,41.024 h -16.158 v 18.375 h 16.158 c 2.173,0 3.939,-1.775 3.939,-3.944 V 98.654 c 0,-2.178 -1.766,-3.939 -3.939,-3.939 z m 0,41.009 h -16.158 v 18.366 h 16.158 c 2.173,0 3.939,-1.751 3.939,-3.929 v -10.507 c 0,-2.169 -1.766,-3.93 -3.939,-3.93 z m 0,41.015 h -16.158 v 18.37 h 16.158 c 2.173,0 3.939,-1.756 3.939,-3.929 v -10.512 c 0,-2.168 -1.766,-3.929 -3.939,-3.929 z" /><path
     inkscape:connector-curvature="0"
     id="path8"
     style="fill:#dfc97a"
     d="M 54.699,68.976 V 181.75 c 0,7.334 5.996,13.32 13.301,13.32 h 112.783 c 7.33,0 13.311,-5.986 13.311,-13.32 V 68.976 c 0,-7.305 -5.981,-13.306 -13.311,-13.306 H 68 c -7.305,0 -13.301,6 -13.301,13.306 z" /><g
     id="Layer_1"
     transform="translate(-125.818,-125.807)" /><text
     xml:space="preserve"
     style="font-style:normal;font-variant:normal;font-weight:500;font-stretch:normal;font-size:126.82837677px;line-height:1.25;font-family:ubuntu;-inkscape-font-specification:'ubuntu Medium';text-align:start;letter-spacing:0px;word-spacing:0px;text-anchor:start;fill:#008000;fill-opacity:1;stroke:none;stroke-width:7.92677355"
     x="75.571037"
     y="167.37738"
     id="text849"><tspan
       sodipodi:role="line"
       id="tspan847"
       x="75.571037"
       y="167.37738"
       style="fill:#008000;stroke-width:7.92677355">G</tspan></text>
</svg>